<svg width="621" height="512" viewBox="0 0 621 512" fill="none" xmlns="http://www.w3.org/2000/svg">
<g id="undraw_investing_7u74 1">
<g clip-path="url(#clip0)">
<path id="Vector" d="M117.095 396.466C117.095 396.466 348.159 203.619 481.238 396.466H117.095Z" fill="#F2F2F2"/>
<path id="Vector_2" d="M496.26 512C555.365 512 603.279 504.533 603.279 495.321C603.279 486.11 555.365 478.643 496.26 478.643C437.155 478.643 389.241 486.11 389.241 495.321C389.241 504.533 437.155 512 496.26 512Z" fill="#F2F2F2"/>
<path id="Vector_3" d="M513.634 505.746C572.738 505.746 620.653 498.278 620.653 489.067C620.653 479.855 572.738 472.388 513.634 472.388C454.529 472.388 406.615 479.855 406.615 489.067C406.615 498.278 454.529 505.746 513.634 505.746Z" stroke="#3F3D56" stroke-miterlimit="10"/>
<path id="Vector_4" d="M559.143 316.512C560.714 317.083 562.396 317.282 564.056 317.092C565.717 316.902 567.31 316.329 568.712 315.418C570.113 314.507 571.283 313.283 572.131 311.843C572.979 310.403 573.48 308.785 573.596 307.118C573.712 305.45 573.438 303.779 572.798 302.235C572.158 300.691 571.168 299.317 569.906 298.222C568.644 297.126 567.145 296.338 565.526 295.921C563.908 295.503 562.215 295.467 560.58 295.816L560.851 301.37L558.223 296.61C555.644 297.822 553.651 300.008 552.683 302.688C552.339 303.627 552.13 304.61 552.062 305.607C551.897 307.948 552.498 310.278 553.776 312.246C555.054 314.214 556.938 315.712 559.143 316.512Z" fill="#57B894"/>
<path id="Vector_5" d="M572.146 380.935C571.218 376.211 575.238 372.023 579.209 369.301C583.179 366.579 587.818 363.904 589.173 359.285C591.12 352.646 585.321 346.566 580.807 341.322C577.458 337.431 574.582 333.157 572.239 328.589C571.221 326.795 570.527 324.835 570.19 322.799C569.834 319.856 570.779 316.928 571.732 314.121C574.905 304.77 578.297 295.497 581.909 286.302" stroke="#3F3D56" stroke-miterlimit="10"/>
<path id="Vector_6" d="M559.588 315.082C561.158 315.653 562.84 315.852 564.501 315.662C566.161 315.472 567.755 314.899 569.156 313.988C570.557 313.077 571.728 311.853 572.575 310.413C573.423 308.972 573.924 307.355 574.04 305.688C574.156 304.02 573.883 302.349 573.243 300.805C572.602 299.261 571.612 297.887 570.35 296.792C569.088 295.696 567.589 294.908 565.971 294.491C564.352 294.073 562.659 294.037 561.025 294.386L561.295 299.94L558.667 295.18C556.088 296.392 554.095 298.578 553.128 301.258C552.784 302.197 552.575 303.18 552.507 304.177C552.341 306.518 552.942 308.848 554.22 310.816C555.498 312.784 557.382 314.282 559.588 315.082V315.082Z" stroke="#3F3D56" stroke-miterlimit="10"/>
<path id="Vector_7" d="M570.827 284.384C571.443 282.683 572.478 281.165 573.835 279.969C575.193 278.773 576.829 277.938 578.594 277.541L579.483 282.821L581.13 277.276C583.417 277.309 585.635 278.069 587.462 279.446C589.289 280.822 590.631 282.743 591.295 284.932C591.96 287.121 591.911 289.464 591.156 291.624C590.402 293.783 588.981 295.647 587.098 296.946C585.215 298.245 582.968 298.912 580.681 298.851C578.395 298.79 576.187 298.004 574.376 296.606C572.566 295.208 571.246 293.271 570.608 291.074C569.97 288.877 570.047 286.535 570.827 284.384H570.827Z" fill="#57B894"/>
<path id="Vector_8" d="M571.42 282.477C572.036 280.777 573.071 279.258 574.428 278.062C575.785 276.867 577.422 276.031 579.187 275.634L580.075 280.915L581.723 275.369C584.01 275.403 586.227 276.163 588.054 277.539C589.881 278.915 591.224 280.836 591.888 283.025C592.552 285.214 592.503 287.558 591.749 289.717C590.994 291.877 589.573 293.74 587.69 295.04C585.807 296.339 583.56 297.006 581.274 296.944C578.987 296.883 576.779 296.097 574.969 294.699C573.158 293.301 571.839 291.364 571.201 289.167C570.563 286.97 570.639 284.628 571.42 282.477V282.477Z" stroke="#3F3D56" stroke-miterlimit="10"/>
<path id="Vector_9" d="M578.912 341.429C581.403 342.333 584.14 342.288 586.6 341.304C589.06 340.32 591.072 338.465 592.252 336.092C593.433 333.72 593.699 330.996 593 328.44C592.301 325.884 590.686 323.674 588.463 322.233L587.197 326.494L586.299 321.152C586.29 321.148 586.281 321.144 586.272 321.141C584.94 320.658 583.526 320.442 582.11 320.505C580.694 320.569 579.305 320.91 578.021 321.51C576.738 322.111 575.585 322.958 574.629 324.004C573.672 325.049 572.931 326.273 572.448 327.605C571.965 328.938 571.749 330.352 571.812 331.768C571.876 333.183 572.217 334.573 572.817 335.856C573.418 337.14 574.265 338.293 575.311 339.249C576.356 340.205 577.58 340.946 578.912 341.429Z" fill="#57B894"/>
<path id="Vector_10" d="M579.426 339.498C581.917 340.402 584.653 340.357 587.113 339.373C589.573 338.389 591.585 336.533 592.766 334.161C593.946 331.788 594.212 329.065 593.513 326.509C592.814 323.953 591.199 321.743 588.976 320.301L587.71 324.563L586.813 319.22C586.804 319.216 586.795 319.213 586.785 319.21C584.095 318.234 581.127 318.367 578.535 319.579C575.942 320.791 573.938 322.984 572.962 325.674C571.986 328.365 572.118 331.332 573.331 333.925C574.543 336.517 576.735 338.522 579.426 339.498V339.498Z" stroke="#3F3D56" stroke-miterlimit="10"/>
<path id="Vector_11" d="M567.678 359.351C568.106 361.788 569.359 364.004 571.227 365.626C573.095 367.249 575.465 368.18 577.938 368.264C580.411 368.347 582.837 367.577 584.81 366.084C586.783 364.59 588.182 362.464 588.774 360.061C589.365 357.658 589.112 355.125 588.058 352.887C587.003 350.648 585.211 348.841 582.982 347.767C580.752 346.693 578.222 346.418 575.814 346.989C573.406 347.559 571.268 348.94 569.757 350.9L574.565 358.137L567.996 354.296C567.487 355.931 567.377 357.665 567.678 359.351Z" fill="#57B894"/>
<path id="Vector_12" d="M568.122 357.921C568.551 360.358 569.804 362.574 571.672 364.196C573.54 365.819 575.909 366.75 578.382 366.834C580.855 366.917 583.282 366.147 585.255 364.654C587.227 363.16 588.627 361.034 589.218 358.631C589.81 356.228 589.557 353.695 588.502 351.457C587.447 349.218 585.655 347.411 583.426 346.337C581.197 345.263 578.666 344.988 576.258 345.559C573.851 346.129 571.712 347.51 570.202 349.47L575.01 356.707L568.44 352.866C567.931 354.501 567.822 356.235 568.122 357.921V357.921Z" stroke="#3F3D56" stroke-miterlimit="10"/>
<path id="Vector_13" d="M557.164 387.333C557.164 387.333 566.686 383.601 569.556 381.558C572.426 379.514 584.204 377.074 584.916 380.351C585.628 383.629 599.227 396.652 588.476 396.739C577.725 396.826 563.495 398.503 560.631 396.758C557.767 395.013 557.164 387.333 557.164 387.333Z" fill="#656380"/>
<path id="Vector_14" opacity="0.2" d="M588.668 395.598C577.917 395.685 563.687 397.362 560.823 395.617C558.642 394.289 557.772 389.521 557.481 387.321C557.28 387.329 557.164 387.333 557.164 387.333C557.164 387.333 557.767 395.013 560.631 396.758C563.495 398.503 577.725 396.826 588.476 396.739C591.579 396.714 592.651 395.61 592.592 393.975C592.161 394.963 590.978 395.58 588.668 395.598Z" fill="black"/>
<g id="bar1">
<path id="Vector_15" d="M143.954 287.012H118.729C114.181 287.012 110.494 290.699 110.494 295.247V388.578C110.494 393.126 114.181 396.813 118.729 396.813H143.954C148.502 396.813 152.189 393.126 152.189 388.578V295.247C152.189 290.699 148.502 287.012 143.954 287.012Z" fill="#00D2D3"/>
<path id="Vector_16" d="M149.514 281.452H124.288C119.74 281.452 116.053 285.139 116.053 289.688V383.018C116.053 387.566 119.74 391.253 124.288 391.253H149.514C154.062 391.253 157.749 387.566 157.749 383.018V289.688C157.749 285.139 154.062 281.452 149.514 281.452Z" stroke="#3F3D56" stroke-miterlimit="10"/>
</g>
<g id="bar2">
<path id="Vector_17" d="M223.176 220.992H197.951C193.403 220.992 189.715 224.679 189.715 229.228V388.578C189.715 393.126 193.403 396.813 197.951 396.813H223.176C227.724 396.813 231.411 393.126 231.411 388.578V229.228C231.411 224.679 227.724 220.992 223.176 220.992Z" fill="#00D2D3"/>
<path id="Vector_18" d="M228.735 215.433H203.51C198.962 215.433 195.275 219.12 195.275 223.668V383.018C195.275 387.566 198.962 391.253 203.51 391.253H228.735C233.284 391.253 236.971 387.566 236.971 383.018V223.668C236.971 219.12 233.284 215.433 228.735 215.433Z" stroke="#3F3D56" stroke-miterlimit="10"/>
</g>
<g id="bar3">
<path id="Vector_19" d="M302.398 175.126H277.173C272.624 175.126 268.937 178.813 268.937 183.361V388.578C268.937 393.126 272.624 396.813 277.173 396.813H302.398C306.946 396.813 310.633 393.126 310.633 388.578V183.361C310.633 178.813 306.946 175.126 302.398 175.126Z" fill="#00D2D3"/>
<path id="Vector_20" d="M307.957 169.566H282.732C278.184 169.566 274.497 173.253 274.497 177.802V383.018C274.497 387.566 278.184 391.253 282.732 391.253H307.957C312.505 391.253 316.193 387.566 316.193 383.018V177.802C316.193 173.253 312.505 169.566 307.957 169.566Z" stroke="#3F3D56" stroke-miterlimit="10"/>
</g>
<g id="bar4">
<path id="Vector_21" d="M381.62 131.344H356.394C351.846 131.344 348.159 135.032 348.159 139.58V388.578C348.159 393.126 351.846 396.813 356.394 396.813H381.62C386.168 396.813 389.855 393.126 389.855 388.578V139.58C389.855 135.032 386.168 131.344 381.62 131.344Z" fill="#00D2D3"/>
<path id="Vector_22" d="M387.179 125.785H361.954C357.406 125.785 353.719 129.472 353.719 134.02V383.018C353.719 387.566 357.406 391.253 361.954 391.253H387.179C391.727 391.253 395.414 387.566 395.414 383.018V134.02C395.414 129.472 391.727 125.785 387.179 125.785Z" stroke="#3F3D56" stroke-miterlimit="10"/>
</g>
<g id="bar5">
<path id="Vector_23" d="M460.841 54.9006H435.616C431.068 54.9006 427.381 58.5877 427.381 63.136V388.578C427.381 393.126 431.068 396.813 435.616 396.813H460.841C465.39 396.813 469.077 393.126 469.077 388.578V63.136C469.077 58.5877 465.39 54.9006 460.841 54.9006Z" fill="#00D2D3"/>
<path id="Vector_24" d="M466.401 49.341H441.176C436.628 49.341 432.94 53.0282 432.94 57.5765V383.018C432.94 387.566 436.628 391.253 441.176 391.253H466.401C470.949 391.253 474.636 387.566 474.636 383.018V57.5765C474.636 53.0282 470.949 49.341 466.401 49.341Z" stroke="#3F3D56" stroke-miterlimit="10"/>
</g>
<path id="Vector_25" d="M598.334 397.16H0" stroke="#3F3D56" stroke-miterlimit="10"/>
<path id="Vector_26" d="M560.601 330.499C560.601 330.499 567.141 354.043 558.857 357.531C550.573 361.019 553.189 331.371 553.189 331.371L560.601 330.499Z" fill="#A0616A"/>
<path id="Vector_27" d="M501.306 481.355C501.306 481.355 495.202 480.919 493.022 482.227C492.37 482.609 491.642 482.845 490.89 482.921C490.138 482.996 489.378 482.908 488.662 482.663C488.662 482.663 479.071 481.791 482.559 486.587C486.047 491.383 489.534 493.127 489.534 495.307C489.534 497.487 503.922 497.487 504.358 495.307C504.794 493.127 505.23 481.791 504.358 481.355C503.486 480.919 501.306 481.355 501.306 481.355Z" fill="#575A89"/>
<path id="Vector_28" d="M517.438 481.355C517.438 481.355 523.542 480.919 525.722 482.227C526.374 482.609 527.102 482.845 527.854 482.921C528.607 482.996 529.366 482.908 530.082 482.663C530.082 482.663 539.674 481.791 536.186 486.587C532.698 491.383 529.21 493.127 529.21 495.307C529.21 497.487 514.822 497.487 514.386 495.307C513.95 493.127 513.514 481.791 514.386 481.355C515.258 480.919 517.438 481.355 517.438 481.355Z" fill="#575A89"/>
<path id="Vector_29" d="M483.431 325.703C483.431 325.703 480.379 394.591 482.123 398.079C483.867 401.567 489.97 460.427 489.098 463.915C488.227 467.403 483.867 481.791 489.098 483.971C494.33 486.151 505.666 483.971 505.666 483.971C505.666 483.971 508.718 466.531 507.41 457.375C506.102 448.219 505.666 409.851 505.666 409.851L514.386 369.739L517.438 407.671C517.438 407.671 518.31 459.555 512.206 470.019C506.102 480.483 514.386 484.843 514.386 484.843C514.386 484.843 530.954 487.023 532.698 486.587C534.442 486.151 531.39 469.147 532.698 461.735C534.006 454.323 537.058 412.903 539.674 402.875C542.289 392.847 557.113 337.039 546.213 325.703C535.314 314.367 483.431 325.703 483.431 325.703Z" fill="#3F3D56"/>
<path id="Vector_30" d="M515.258 186.618C523.686 186.618 530.518 179.786 530.518 171.358C530.518 162.93 523.686 156.098 515.258 156.098C506.83 156.098 499.998 162.93 499.998 171.358C499.998 179.786 506.83 186.618 515.258 186.618Z" fill="#A0616A"/>
<path id="Vector_31" d="M503.922 178.334C503.922 178.334 506.538 199.262 505.23 199.698C503.922 200.134 528.338 199.698 528.338 199.698C528.338 199.698 523.542 187.054 528.338 177.026L503.922 178.334Z" fill="#A0616A"/>
<path id="Vector_32" d="M503.922 195.338C503.922 195.338 514.548 184.874 527.111 195.338L527.924 198.458L521.362 198.39H503.922V195.338Z" fill="#F2F2F2"/>
<path id="Vector_33" d="M555.805 329.191C554.798 329.391 552.33 329.801 549.113 330.289C538.4 331.907 519.417 334.357 518.746 332.679C517.874 330.499 514.822 322.651 512.642 326.139C510.462 329.627 511.77 332.679 502.614 333.115C496.384 333.411 487.328 332.496 482.314 331.057C479.96 330.381 478.495 329.592 478.635 328.755C479.071 326.139 483.867 276.435 483.867 271.639C483.867 266.843 485.611 243.734 485.611 243.734L473.08 219.079L472.095 217.138C472.095 217.138 473.403 212.342 477.327 211.47C481.251 210.598 499.998 199.698 499.998 199.698C499.998 199.698 503.922 193.594 511.334 194.03C518.746 194.466 520.49 191.414 530.518 199.698C530.518 199.698 542.725 204.93 547.085 207.546C551.445 210.162 556.241 210.162 556.677 214.522C556.764 215.399 556.289 217.086 555.474 219.218C552.487 227.031 544.94 240.857 543.759 243.011C543.654 243.198 543.597 243.299 543.597 243.299C543.597 243.299 543.371 251.138 543.61 260.316V260.337C543.846 269.14 544.509 279.173 546.213 284.719C549.701 296.055 560.165 328.319 555.805 329.191Z" fill="#575A89"/>
<path id="Vector_34" d="M535.068 165.094C534.763 163.705 534.176 162.393 533.343 161.24C533.011 158.051 531.948 154.982 530.235 152.272C529.564 151.002 528.611 149.903 527.45 149.058C526.12 148.292 524.602 147.913 523.069 147.965C522.79 147.961 522.29 148.045 521.84 148.066C521.551 147.976 521.261 147.897 520.969 147.822C520.799 147.443 520.461 146.34 520.367 146.414L519.096 147.425C518.558 147.331 518.018 147.259 517.476 147.201C517.278 146.638 517.081 146.074 516.883 145.511C516.563 146.015 516.282 146.543 516.043 147.09C515.503 147.063 514.963 147.054 514.423 147.062L513.342 146.024C513.278 146.314 513.132 146.578 512.92 146.786C512.708 146.993 512.441 147.134 512.15 147.192C511.653 147.243 511.157 147.309 510.664 147.389C510.624 147.389 510.583 147.389 510.544 147.388C507.882 147.321 505.019 147.202 502.794 148.663C501.752 149.378 500.905 150.34 500.327 151.463C500.054 151.648 499.781 151.832 499.516 152.029C498.624 152.637 497.85 153.404 497.233 154.292C496.785 155.057 496.445 155.881 496.223 156.739C495.374 159.323 494.981 162.035 495.061 164.754C495.152 167.492 496.184 170.114 497.985 172.178C499.126 173.405 500.577 174.31 501.72 175.535C504.073 178.057 504.514 181.574 506.527 184.243C508.656 187.066 512.542 188.923 515.954 189.455C518.006 189.765 520.098 189.665 522.111 189.163C524.124 188.661 526.018 187.766 527.685 186.53C528.484 185.973 529.164 185.261 529.682 184.435C530.866 182.387 530.364 179.812 530.804 177.487C531.628 173.128 535.788 169.471 535.068 165.094Z" fill="#3F3D56"/>
<path id="Vector_35" d="M476.891 331.807C476.891 331.807 483.431 355.351 475.147 358.839C466.863 362.327 469.479 332.679 469.479 332.679L476.891 331.807Z" fill="#A0616A"/>
<path id="Vector_36" opacity="0.1" d="M484.734 278.379C484.734 278.379 481.874 320.828 482.314 331.057C479.96 330.381 478.495 329.592 478.635 328.755C479.071 326.139 483.867 276.435 483.867 271.639C483.867 266.843 485.611 243.734 485.611 243.734L473.08 219.079C473.281 217.858 473.403 217.138 473.403 217.138L479.725 230.436L488.662 232.834L484.734 278.379Z" fill="black"/>
<path id="Vector_37" d="M475.147 214.522L472.095 217.138C472.095 217.138 468.171 240.246 468.607 245.915C469.043 251.583 459.451 337.475 466.863 337.475C474.275 337.475 482.559 336.167 481.251 333.115C479.943 330.063 483.428 278.379 483.428 278.379L487.354 232.834L475.147 214.522Z" fill="#575A89"/>
<path id="Vector_38" opacity="0.1" d="M555.474 219.218C552.487 227.031 544.94 240.857 543.759 243.011C543.794 237.434 543.815 233.488 543.815 233.488L552.971 214.74L554.933 213.214C554.933 213.214 555.142 215.521 555.474 219.218Z" fill="black"/>
<path id="Vector_39" opacity="0.1" d="M555.805 329.191C554.798 329.391 552.33 329.801 549.113 330.289C547.443 317.942 542.978 282.434 543.262 279.09C543.401 277.442 543.519 269.297 543.61 260.337C543.846 269.14 544.509 279.173 546.213 284.719C549.701 296.055 560.165 328.319 555.805 329.191Z" fill="black"/>
<path id="Vector_40" d="M550.137 211.47L556.677 213.214C556.677 213.214 561.037 261.611 561.473 269.895C561.909 278.179 567.141 329.191 566.269 331.371C565.397 333.551 551.881 336.603 551.445 334.423C551.009 332.243 544.671 283.051 545.006 279.089C545.341 275.127 543.161 234.142 543.161 234.142L550.137 211.47Z" fill="#575A89"/>
<path id="Vector_41" d="M136.553 239.408L215.775 173.389L295.692 128.217L374.914 84.4357L454.136 7.99185" stroke="#3F3D56" stroke-miterlimit="10"/>
<path id="Vector_42" d="M134.469 250.527C138.69 250.527 142.113 247.105 142.113 242.883C142.113 238.661 138.69 235.239 134.469 235.239C130.247 235.239 126.824 238.661 126.824 242.883C126.824 247.105 130.247 250.527 134.469 250.527Z" fill="#F2F2F2"/>
<path id="Vector_43" d="M213.691 184.508C217.912 184.508 221.335 181.085 221.335 176.863C221.335 172.641 217.912 169.219 213.691 169.219C209.469 169.219 206.046 172.641 206.046 176.863C206.046 181.085 209.469 184.508 213.691 184.508Z" fill="#F2F2F2"/>
<path id="Vector_44" d="M293.607 139.336C297.829 139.336 301.252 135.914 301.252 131.692C301.252 127.47 297.829 124.048 293.607 124.048C289.386 124.048 285.963 127.47 285.963 131.692C285.963 135.914 289.386 139.336 293.607 139.336Z" fill="#F2F2F2"/>
<path id="Vector_45" d="M372.829 95.5548C377.051 95.5548 380.473 92.1323 380.473 87.9104C380.473 83.6885 377.051 80.266 372.829 80.266C368.607 80.266 365.185 83.6885 365.185 87.9104C365.185 92.1323 368.607 95.5548 372.829 95.5548Z" fill="#F2F2F2"/>
<path id="Vector_46" d="M452.051 19.111C456.273 19.111 459.695 15.6885 459.695 11.4666C459.695 7.24471 456.273 3.8222 452.051 3.8222C447.829 3.8222 444.407 7.24471 444.407 11.4666C444.407 15.6885 447.829 19.111 452.051 19.111Z" fill="#F2F2F2"/>
<path id="Vector_47" d="M136.553 247.053C140.775 247.053 144.198 243.63 144.198 239.408C144.198 235.186 140.775 231.764 136.553 231.764C132.332 231.764 128.909 235.186 128.909 239.408C128.909 243.63 132.332 247.053 136.553 247.053Z" stroke="#3F3D56" stroke-miterlimit="10"/>
<path id="Vector_48" d="M215.775 181.033C219.997 181.033 223.42 177.61 223.42 173.389C223.42 169.167 219.997 165.744 215.775 165.744C211.554 165.744 208.131 169.167 208.131 173.389C208.131 177.61 211.554 181.033 215.775 181.033Z" stroke="#3F3D56" stroke-miterlimit="10"/>
<path id="Vector_49" d="M295.692 135.862C299.914 135.862 303.336 132.439 303.336 128.217C303.336 123.995 299.914 120.573 295.692 120.573C291.47 120.573 288.048 123.995 288.048 128.217C288.048 132.439 291.47 135.862 295.692 135.862Z" stroke="#3F3D56" stroke-miterlimit="10"/>
<path id="Vector_50" d="M374.914 92.0801C379.136 92.0801 382.558 88.6576 382.558 84.4357C382.558 80.2138 379.136 76.7913 374.914 76.7913C370.692 76.7913 367.27 80.2138 367.27 84.4357C367.27 88.6576 370.692 92.0801 374.914 92.0801Z" stroke="#3F3D56" stroke-miterlimit="10"/>
<path id="Vector_51" d="M454.136 15.6362C458.358 15.6362 461.78 12.2137 461.78 7.99186C461.78 3.76998 458.358 0.347473 454.136 0.347473C449.914 0.347473 446.492 3.76998 446.492 7.99186C446.492 12.2137 449.914 15.6362 454.136 15.6362Z" stroke="#3F3D56" stroke-miterlimit="10"/>
</g>
</g>
<defs>
<clipPath id="clip0">
<rect width="621" height="512" fill="white"/>
</clipPath>
</defs>
</svg>
