<svg width="599" height="397" viewBox="0 0 599 397" fill="none" xmlns="http://www.w3.org/2000/svg">
<g id="undraw_share_opinion_jpw0 1">
<path id="Vector" d="M516.939 384.361L391.78 384.776C358.576 374.799 331.371 340.146 331.199 288.191C331.166 280.364 331.757 272.547 332.967 264.814L433.777 242.166L511.546 224.696C517.276 229.828 522.616 235.38 527.521 241.306L453.156 280.572L418.075 299.096L457.495 285.497L539.315 257.27C544.417 265.071 548.964 273.222 552.92 281.663L528.233 307.175L556.16 288.893C556.279 289.173 556.398 289.454 556.517 289.735C574.215 331.751 552.256 384.244 516.939 384.361Z" fill="#F2F2F2"/>
<path id="Vector_2" d="M496.371 212.937C477.444 218.373 454.174 225.241 430.249 232.379C395.657 242.703 359.696 253.598 333.516 261.563L333.533 261.469C334.501 255.881 336.776 250.6 340.173 246.058C359.567 220.843 384.261 203.228 411.745 196.687H411.748C419.476 194.843 427.392 193.899 435.337 193.873C457.204 193.8 477.916 200.658 496.371 212.937Z" fill="#F2F2F2"/>
<path id="Vector_3" d="M191.092 305.807L169.453 370.615L164.14 386.537C161.582 390.402 158.533 393.918 155.07 396.999H154.562C127.299 396.999 102.542 395.595 84.2987 393.318L86.8378 373.853L92.2872 332.103L99.2546 278.637C103.373 275.952 107.686 273.578 112.157 271.533L118.3 326.987L121.2 353.147L122.041 325.136L123.782 266.995C129.276 265.219 134.894 263.854 140.589 262.911L149.714 283.715L145.4 262.212C145.586 262.19 145.771 262.163 145.957 262.141C173.657 258.805 198.693 283.027 191.092 305.807Z" fill="#F2F2F2"/>
<path id="Vector_4" d="M89.284 286.161C88.2575 299.402 87.1053 315.712 85.9587 332.502C84.9977 346.617 84.0476 361.065 83.1903 374.3C82.7644 380.902 82.3603 387.203 81.9945 393.013C78.893 392.603 75.9935 392.161 73.3234 391.702C70.6893 387.025 68.4377 382.142 66.5908 377.101C61.8949 364.286 60.0985 350.848 61.6765 337.575V337.569C62.311 332.217 63.493 326.944 65.2039 321.833C69.8692 307.989 78.1892 295.664 89.284 286.161V286.161Z" fill="#F2F2F2"/>
<path id="Vector_5" d="M256.125 383.736C256.125 391.041 210.924 396.96 155.07 396.999H154.562C127.299 396.999 102.542 395.595 84.2987 393.318C83.5179 393.215 82.748 393.116 81.9944 393.013C78.893 392.603 75.9935 392.161 73.3234 391.702C60.5626 389.48 53 386.722 53 383.736C53 381.317 57.9471 379.056 66.5908 377.101C71.1557 376.069 76.747 375.13 83.1903 374.3C84.3752 374.142 85.591 373.993 86.8378 373.853C104.808 371.75 128.544 370.473 154.562 370.473C159.619 370.473 164.593 370.522 169.453 370.615C218.481 371.554 256.125 377.069 256.125 383.736Z" fill="#3F3D56"/>
<path id="Vector_6" d="M134.866 267.627L137.418 287.532C137.418 287.532 138.439 294.167 139.46 297.739C139.46 297.739 138.439 316.623 146.605 329.892L151.709 339.589L152.729 353.879L165.489 355.411L162.937 333.975C162.937 333.975 161.916 323.768 162.937 319.685C163.958 315.602 157.833 296.718 157.833 296.718C157.833 296.718 165.999 270.179 159.875 263.544C153.75 256.91 134.866 267.627 134.866 267.627Z" fill="#A0616A"/>
<path id="Vector_7" d="M157.323 349.796C157.323 349.796 151.709 349.796 151.198 351.328C150.688 352.859 142.522 366.639 142.522 366.639C142.522 366.639 135.377 377.867 145.584 378.377C155.792 378.887 158.854 374.294 158.854 374.294C158.854 374.294 168.041 359.493 168.551 356.942C169.061 354.39 164.716 348.921 164.716 348.921C164.716 348.921 158.854 352.859 157.323 349.796Z" fill="#2F2E41"/>
<path id="Vector_8" d="M164.468 99.7167C174.052 99.7167 181.821 91.9478 181.821 82.3643C181.821 72.7808 174.052 65.0118 164.468 65.0118C154.884 65.0118 147.115 72.7808 147.115 82.3643C147.115 91.9478 154.884 99.7167 164.468 99.7167Z" fill="#A0616A"/>
<path id="Vector_9" d="M150.433 87.7231C150.433 87.7231 150.433 106.607 143.798 108.138C137.163 109.669 152.984 127.021 161.661 124.98C170.337 122.938 173.91 109.159 173.91 109.159C173.91 109.159 166.254 99.4615 169.317 94.3579C172.379 89.2542 150.433 87.7231 150.433 87.7231Z" fill="#A0616A"/>
<path id="Vector_10" d="M157.833 114.007C155.397 113.931 153.014 113.273 150.884 112.088C148.754 110.903 146.939 109.226 145.589 107.197C145.589 107.197 138.439 108.393 137.418 108.903C136.397 109.414 118.534 115.028 114.451 126.766L130.783 147.691C130.783 147.691 127.211 177.293 130.783 190.562C132.911 198.51 132.373 206.936 129.252 214.549C129.252 214.549 127.721 215.06 130.273 216.08C132.825 217.101 191.518 205.363 192.539 202.301C193.559 199.238 191.518 199.238 193.049 197.707C194.58 196.176 198.663 186.989 194.58 183.927C190.497 180.865 187.945 147.181 187.945 147.181L198.663 120.131C198.663 120.131 179.075 104.477 172.027 106.435C172.026 106.435 170.592 114.007 157.833 114.007Z" fill="#D0CDE1"/>
<path id="Vector_11" d="M164.468 257.42C164.468 257.42 163.447 279.876 165.489 288.552C167.53 297.229 167.53 300.801 167.53 300.801C167.53 300.801 164.468 315.602 165.999 329.382C167.53 343.162 164.213 365.373 164.213 365.373L176.717 369.19L184.373 330.403C184.373 330.403 190.497 306.415 186.924 295.187C186.924 295.187 188.966 260.993 190.497 257.42C192.028 253.848 164.468 257.42 164.468 257.42Z" fill="#A0616A"/>
<path id="Vector_12" d="M150.773 85.4548C151.003 83.8271 151.489 82.0516 152.877 81.1708C154.318 80.2563 156.178 80.6314 157.88 80.7559C159.582 80.8803 161.668 80.4547 162.227 78.8424C162.576 77.8372 162.199 76.6358 162.743 75.7214C163.609 74.2663 166.254 74.4324 166.71 72.8016C166.854 72.285 166.714 71.7086 166.922 71.2144C167.203 70.5478 167.993 70.2821 168.698 70.1188C171.275 69.5226 173.923 69.2892 176.565 69.4256C176.823 69.4719 177.09 69.4192 177.311 69.2778C177.428 69.1622 177.511 69.0173 177.552 68.8583C178.15 67.0713 177.517 65.0438 176.328 63.5821C175.065 62.1744 173.507 61.0617 171.766 60.3229C167.911 58.4533 163.733 57.3428 159.458 57.052C156.202 56.8475 152.785 57.2019 150.012 58.9196C149.19 59.4395 148.428 60.0475 147.738 60.7328C144.721 63.7577 142.755 67.6704 142.127 71.8959C141.518 76.1113 141.989 80.4123 143.497 84.3956C144.378 86.7935 145.768 89.27 147.918 90.7476C149.071 91.5396 150.064 92.2707 150.543 90.926C151.05 89.4999 150.549 87.0351 150.773 85.4548Z" fill="#2F2E41"/>
<path id="Vector_13" d="M131.804 211.487C131.804 211.487 124.148 221.694 125.679 228.84C127.211 235.985 132.825 247.723 132.825 247.723C132.825 247.723 129.762 270.69 134.866 270.69C139.97 270.69 161.916 269.669 162.426 267.117C162.937 264.565 160.895 239.047 160.895 239.047C160.895 239.047 163.447 261.503 164.978 261.503C166.509 261.503 193.049 264.055 194.07 262.524C195.09 260.993 197.132 221.694 197.132 221.694C197.132 221.694 199.916 203.161 191.123 200.689C182.331 198.218 131.804 211.487 131.804 211.487Z" fill="#2F2E41"/>
<path id="Vector_14" d="M172.634 365.108C172.634 365.108 163.447 360.004 162.937 364.087C162.426 368.17 156.812 382.97 156.812 382.97C156.812 382.97 151.198 394.709 163.447 395.219C175.696 395.729 178.758 390.115 178.758 387.564C178.758 385.012 177.386 367.505 177.386 367.505L172.634 365.108Z" fill="#2F2E41"/>
<path id="Vector_15" d="M204.277 147.691L206.829 170.147C206.829 170.147 209.891 182.396 207.85 187.5C205.808 192.604 198.153 216.08 198.153 216.08C198.153 216.08 196.111 203.321 191.007 201.79L194.07 172.699C194.07 172.699 186.763 154.546 188.375 152.139C189.987 149.733 204.277 147.691 204.277 147.691Z" fill="#A0616A"/>
<path id="Vector_16" d="M113.43 149.222L114.451 169.637C114.451 169.637 110.879 187.5 118.024 206.383L119.045 214.549L125.679 227.308C125.679 227.308 127.211 215.06 130.273 215.06C130.273 215.06 127.211 206.894 128.231 202.301C129.252 197.707 127.721 173.21 127.721 173.21L130.273 153.392L113.43 149.222Z" fill="#A0616A"/>
<path id="Vector_17" d="M193.049 119.621H198.663C198.663 119.621 211.933 150.243 206.829 150.753C201.725 151.264 185.393 155.347 184.883 153.305C184.373 151.264 193.049 119.621 193.049 119.621Z" fill="#D0CDE1"/>
<path id="Vector_18" d="M119.045 122.173L114.451 126.766C114.451 126.766 108.327 149.733 112.92 152.285C117.513 154.836 134.866 157.899 135.887 155.857C136.908 153.816 119.045 122.173 119.045 122.173Z" fill="#D0CDE1"/>
<path id="Vector_19" d="M431.957 15.9057V369.84C431.953 374.056 430.276 378.098 427.293 381.078C424.311 384.058 420.268 385.733 416.051 385.734H272.362C270.274 385.738 268.204 385.33 266.274 384.532C264.343 383.735 262.588 382.564 261.111 381.088C259.633 379.611 258.462 377.858 257.663 375.927C256.864 373.997 256.454 371.929 256.456 369.84V15.9058C256.456 13.8169 256.868 11.7485 257.667 9.81869C258.466 7.88883 259.638 6.13533 261.115 4.65831C262.592 3.18129 264.345 2.00969 266.275 1.21041C268.205 0.41114 270.274 -0.000149461 272.362 3.12638e-05H293.865V2.75746C293.865 6.23076 295.244 9.56201 297.7 12.0185C300.155 14.475 303.486 15.8556 306.959 15.8566H380.04C382.836 15.8626 385.559 14.9664 387.805 13.3012C388.259 12.971 388.69 12.6098 389.094 12.2201C390.373 10.9986 391.391 9.53008 392.085 7.90348C392.78 6.27688 393.137 4.52615 393.134 2.75746V3.12638e-05H416.051C418.14 -0.000608693 420.209 0.410367 422.139 1.20948C424.069 2.00859 425.823 3.18017 427.3 4.65728C428.777 6.13438 429.949 7.88807 430.748 9.81813C431.547 11.7482 431.958 13.8168 431.957 15.9057V15.9057Z" fill="#3F3D56"/>
<path id="Vector_20" opacity="0.1" d="M364.205 150.508C386.823 150.508 405.158 146.841 405.158 142.317C405.158 137.794 386.823 134.127 364.205 134.127C341.588 134.127 323.253 137.794 323.253 142.317C323.253 146.841 341.588 150.508 364.205 150.508Z" fill="black"/>
<path id="Vector_21" opacity="0.1" d="M304.687 192.552C327.305 192.552 345.64 188.885 345.64 184.361C345.64 179.838 327.305 176.171 304.687 176.171C282.07 176.171 263.735 179.838 263.735 184.361C263.735 188.885 282.07 192.552 304.687 192.552Z" fill="black"/>
<path id="Vector_22" opacity="0.1" d="M338.541 269.541C361.159 269.541 379.494 265.874 379.494 261.351C379.494 256.827 361.159 253.16 338.541 253.16C315.924 253.16 297.589 256.827 297.589 261.351C297.589 265.874 315.924 269.541 338.541 269.541Z" fill="black"/>
<path id="Vector_23" opacity="0.1" d="M327.075 353.083C349.692 353.083 368.027 349.416 368.027 344.893C368.027 340.369 349.692 336.702 327.075 336.702C304.457 336.702 286.122 340.369 286.122 344.893C286.122 349.416 304.457 353.083 327.075 353.083Z" fill="black"/>
<g id="comment 3">
<path id="Vector_24" d="M469.317 220.319H344.821V232.484V251.008V261.431L355.244 251.008H469.317V220.319Z" fill="#F368E0"/>
<path id="Vector_25" d="M442.634 227.77H372.596V233.449H442.634V227.77Z" fill="white"/>
<path id="Vector_26" d="M442.634 236.288H372.596V241.967H442.634V236.288Z" fill="white"/>
</g>
<g id="comment 2">
<path id="Vector_27" d="M194 137H318.496V149.164V167.689V178.112L308.073 167.689H194V137Z" fill="#F368E0"/>
<path id="Vector_28" d="M285.261 144.997H215.223V150.676H285.261V144.997Z" fill="white"/>
<path id="Vector_29" d="M285.261 153.515H215.223V159.194H285.261V153.515Z" fill="white"/>
</g>
<g id="comment 1">
<path id="Vector_30" d="M598.795 53H364V75.9418V110.879V130.536L383.657 110.879H598.795V53Z" fill="#F368E0"/>
<path id="Vector_31" d="M562.211 66.1046H400.584V79.2093H562.211V66.1046Z" fill="white"/>
<path id="Vector_32" d="M562.211 85.7616H400.584V98.8662H562.211V85.7616Z" fill="white"/>
</g>
</g>
</svg>
