<svg width="661" height="275" viewBox="0 0 661 275" fill="none" xmlns="http://www.w3.org/2000/svg">
<rect width="661" height="275" fill="#E5E5E5"/>
<g id="undraw_code_thinking_1jeh (1) 1">
<g clip-path="url(#clip0)">
<path id="Vector" d="M47.3816 238.699L32.2256 237.687L37.2776 260.444L54.4542 253.364L47.3816 238.699Z" fill="#FFB9B9"/>
<path id="Vector_2" d="M186.312 196.219L150.948 161.831L130.739 177.508L90.8287 225.55L95.3756 232.63L143.875 199.759L176.713 242.744L208.035 227.068L186.312 196.219Z" fill="#2F2E41"/>
<path id="Vector_3" opacity="0.1" d="M186.312 196.219L150.948 161.831L130.739 177.508L90.8287 225.55L95.3756 232.63L143.875 199.759L176.713 242.744L208.035 227.068L186.312 196.219Z" fill="black"/>
<path id="Vector_4" d="M189.343 218.976L184.796 222.516L147.917 209.873L139.328 206.333L122.151 209.873C122.151 209.873 122.151 195.713 138.318 196.219L154.989 200.265L174.692 201.782L189.343 218.976Z" fill="#FFB9B9"/>
<path id="Vector_5" d="M222.181 256.399L211.067 263.479H197.931L136.802 240.722L47.3816 256.904L44.8553 237.687L126.698 201.782L198.437 225.55L222.181 256.399Z" fill="#2F2E41"/>
<path id="Vector_6" d="M150.443 166.382L142.865 167.899L141.213 165.971C139.906 164.444 139.078 162.565 138.832 160.569C138.587 158.574 138.935 156.55 139.833 154.751V154.751L161.052 126.937C161.052 126.937 167.114 113.283 176.713 118.846C186.312 124.408 168.63 133.511 168.63 133.511L158.021 150.2L159.031 158.797L150.443 166.382Z" fill="#FFB9B9"/>
<path id="Vector_7" d="M198.437 133.511C209.318 133.511 218.14 124.681 218.14 113.788C218.14 102.896 209.318 94.0658 198.437 94.0658C187.555 94.0658 178.734 102.896 178.734 113.788C178.734 124.681 187.555 133.511 198.437 133.511Z" fill="#FFB9B9"/>
<path id="Vector_8" d="M189.596 128.201L198.689 149.947L220.413 140.844C220.413 140.844 213.34 123.65 213.34 123.144C213.34 122.638 189.596 128.201 189.596 128.201Z" fill="#FFB9B9"/>
<path id="Vector_9" d="M249.417 192.533C249.416 204.435 247.543 216.264 243.864 227.583L242.389 232.125L235.316 264.49L227.738 266.513L222.181 259.433L211.067 251.342L202.984 238.193L196.052 226.633L193.89 223.022L186.312 185.094L157.515 168.911L147.917 167.394L149.937 161.831L158.526 150.2L167.114 149.188L169.64 147.165L171.661 148.177L179.744 143.625L182.27 144.637L197.042 146.012L206.015 144.131L218.918 137.198L224.202 138.063L242.389 153.234C247.039 165.813 249.418 179.12 249.417 192.533V192.533Z" fill="#575A89"/>
<path id="Vector_10" d="M36.8778 246.529C36.8778 246.529 41.4027 238.853 39.4915 237.956C37.5802 237.06 29.4635 233.487 29.4635 233.487L17.5605 229.539C17.5605 229.539 0.385118 203.987 0.00811593 226.207C-0.368886 248.427 12.5139 253.768 12.5139 253.768C12.5139 253.768 24.0037 278.521 30.5123 274.574C37.0208 270.627 43.5335 257.228 43.5335 257.228C43.5335 257.228 31.7967 250.912 36.8778 246.529Z" fill="#2F2E41"/>
<path id="Vector_11" opacity="0.1" d="M243.905 188.128L224.707 200.771L196.052 226.632L193.89 223.022L187.827 192.679H189.343L205.005 163.854L243.905 188.128Z" fill="black"/>
<path id="Vector_12" d="M205.005 160.82L189.343 189.645H183.786L180.25 199.759L172.166 201.782L193.89 225.55L224.707 197.736L243.905 185.093L205.005 160.82Z" fill="#575A89"/>
<path id="Vector_13" d="M183.112 99.1238L180.977 99.946C180.649 99.7234 180.368 99.4375 180.152 99.105C179.935 98.7725 179.787 98.4001 179.716 98.0096C179.645 97.619 179.653 97.2183 179.738 96.8307C179.824 96.4432 179.986 96.0767 180.215 95.7526L176.27 95.5679C178.803 92.1917 182.022 89.3923 185.717 87.3549C189.411 85.3175 193.495 84.0885 197.699 83.7494C201.903 83.4102 206.131 83.9684 210.103 85.3873C214.076 86.8061 217.702 89.0532 220.742 91.9798C220.921 91.3605 222.879 92.5653 223.679 93.7868C223.947 92.7792 225.783 97.65 226.432 101.093C226.733 99.9467 227.889 101.797 226.876 103.573C227.518 103.479 227.807 105.122 227.311 106.038C228.013 105.708 227.894 107.669 227.133 108.98C228.135 108.891 219.234 122.719 215.63 130.8C214.584 125.987 213.407 120.919 210.033 117.334C209.46 116.725 208.832 116.17 208.205 115.616L204.813 112.619C200.87 109.135 197.282 104.834 192.029 103.532C188.418 102.637 186.136 102.435 188.103 98.3624C186.326 99.1049 184.666 100.209 182.872 100.899C182.896 100.33 183.147 99.6931 183.112 99.1238Z" fill="#2F2E41"/>
<path id="Vector_14" d="M208.288 119.604C210.241 119.604 211.825 118.019 211.825 116.064C211.825 114.109 210.241 112.524 208.288 112.524C206.335 112.524 204.752 114.109 204.752 116.064C204.752 118.019 206.335 119.604 208.288 119.604Z" fill="#FFB9B9"/>
<g id="thought3">
<path id="Vector_15" d="M126.064 36.4992H108.965V53.6148H126.064V36.4992Z" fill="#1B9CFC"/>
<path id="Vector_16" d="M136.445 43.8344H115.682V23.0512H136.445V43.8344ZM116.585 42.9308H135.542V23.9548H116.585V42.9308Z" fill="#3F3D56"/>
</g>
<g id="thought2">
<path id="Vector_17" d="M49.6672 105.857L44.9724 89.3993L28.5311 94.0989L33.2259 110.557L49.6672 105.857Z" fill="#1B9CFC"/>
<path id="Vector_18" d="M45.4714 117.863L39.7705 97.879L59.7349 92.1724L65.4357 112.157L45.4714 117.863ZM40.8864 98.4998L46.0915 116.746L64.3199 111.536L59.1147 93.2894L40.8864 98.4998Z" fill="#3F3D56"/>
</g>
<g id="thought1">
<path id="Vector_19" d="M45.418 29.2047L57.0928 16.6999L44.6005 5.01336L32.9258 17.5181L45.418 29.2047Z" fill="#1B9CFC"/>
<path id="Vector_20" d="M32.9759 31.7884L47.1524 16.604L62.3215 30.7948L48.145 45.9792L32.9759 31.7884ZM47.1956 17.8812L34.2518 31.7452L48.1018 44.702L61.0456 30.838L47.1956 17.8812Z" fill="#3F3D56"/>
</g>
<path id="Vector_21" d="M626.677 3.27784H467.802V0H395.762V3.27784H236.233C234.821 3.27784 233.424 3.55608 232.12 4.0967C230.816 4.63731 229.631 5.42971 228.633 6.42863C227.636 7.42756 226.844 8.61345 226.304 9.91861C225.764 11.2238 225.486 12.6226 225.486 14.0353V231.802C225.486 233.215 225.764 234.614 226.304 235.919C226.844 237.224 227.636 238.41 228.633 239.409C229.631 240.408 230.816 241.201 232.12 241.741C233.424 242.282 234.821 242.56 236.233 242.56H626.677C629.527 242.56 632.26 241.427 634.276 239.409C636.291 237.392 637.423 234.656 637.423 231.802V14.0353C637.423 12.6226 637.145 11.2238 636.605 9.91861C636.065 8.61345 635.274 7.42756 634.276 6.42863C633.278 5.42971 632.093 4.63731 630.789 4.0967C629.485 3.55608 628.088 3.27784 626.677 3.27784V3.27784Z" fill="#3F3D56"/>
<path id="Vector_22" d="M623.015 22.2893H239.894V238.627H623.015V22.2893Z" fill="#1B9CFC"/>
<path id="Vector_23" d="M431.127 16.3892C433.297 16.3892 435.057 14.6281 435.057 12.4558C435.057 10.2834 433.297 8.52238 431.127 8.52238C428.957 8.52238 427.198 10.2834 427.198 12.4558C427.198 14.6281 428.957 16.3892 431.127 16.3892Z" fill="#1B9CFC"/>
<path id="Vector_24" opacity="0.1" d="M513.449 238.627H239.894V22.2894L513.449 238.627Z" fill="black"/>
<path id="screen-bubble" d="M298.827 216.728C319.166 216.728 335.654 200.223 335.654 179.864C335.654 159.505 319.166 143 298.827 143C278.488 143 262 159.505 262 179.864C262 200.223 278.488 216.728 298.827 216.728Z" fill="#F2F2F2"/>
<path id="screen-outline" d="M308.039 213.281C298.979 213.281 290.122 210.592 282.589 205.553C275.056 200.514 269.184 193.353 265.717 184.974C262.25 176.595 261.343 167.375 263.11 158.48C264.878 149.585 269.241 141.414 275.647 135.001C282.054 128.588 290.216 124.221 299.102 122.452C307.988 120.682 317.199 121.591 325.569 125.061C333.94 128.532 341.094 134.409 346.128 141.95C351.161 149.491 353.848 158.357 353.848 167.426C353.834 179.583 349.003 191.239 340.416 199.835C331.828 208.432 320.184 213.267 308.039 213.281ZM308.039 122.17C299.097 122.17 290.356 124.824 282.921 129.797C275.487 134.77 269.692 141.838 266.27 150.107C262.848 158.377 261.953 167.476 263.697 176.255C265.442 185.033 269.748 193.097 276.07 199.426C282.393 205.756 290.449 210.066 299.219 211.812C307.989 213.558 317.079 212.662 325.34 209.237C333.601 205.811 340.662 200.011 345.63 192.569C350.598 185.126 353.249 176.377 353.249 167.426C353.236 155.427 348.468 143.924 339.992 135.44C331.517 126.956 320.025 122.184 308.039 122.17V122.17Z" fill="#3F3D56"/>
<path id="Vector_25" d="M556.308 138.962H520.52V146.447H556.308V138.962Z" fill="#3F3D56"/>
<path id="Vector_26" d="M599.573 80.6813H477.254V83.8894H599.573V80.6813Z" fill="#3F3D56"/>
<path id="Vector_27" d="M599.573 90.8403H477.254V94.0484H599.573V90.8403Z" fill="#3F3D56"/>
<path id="Vector_28" d="M599.573 100.999H477.254V104.207H599.573V100.999Z" fill="#3F3D56"/>
<path id="Vector_29" d="M599.573 111.158H477.254V114.366H599.573V111.158Z" fill="#3F3D56"/>
<path id="Vector_30" d="M599.573 121.317H477.254V124.525H599.573V121.317Z" fill="#3F3D56"/>
<path id="Vector_31" d="M599.573 26.6783H584.617V41.6495H599.573V26.6783Z" fill="#F2F2F2"/>
<path id="Vector_32" d="M606.517 48.6004H588.356V30.4211H606.517V48.6004ZM589.146 47.81H605.728V31.2115H589.146V47.81Z" fill="#3F3D56"/>
<path id="Vector_33" d="M648.181 234.693H610.79V231.997C610.79 231.926 610.777 231.857 610.75 231.792C610.723 231.727 610.684 231.668 610.634 231.618C610.584 231.569 610.525 231.529 610.461 231.503C610.396 231.476 610.326 231.462 610.256 231.462H597.437C597.367 231.462 597.297 231.476 597.232 231.503C597.168 231.529 597.109 231.569 597.059 231.618C597.009 231.668 596.97 231.727 596.943 231.792C596.916 231.857 596.903 231.926 596.903 231.997V234.693H588.89V231.997C588.89 231.926 588.877 231.857 588.85 231.792C588.823 231.727 588.784 231.668 588.734 231.618C588.684 231.569 588.625 231.529 588.561 231.503C588.496 231.476 588.426 231.462 588.356 231.462H575.537C575.467 231.462 575.397 231.476 575.332 231.503C575.268 231.529 575.209 231.569 575.159 231.618C575.109 231.668 575.07 231.727 575.043 231.792C575.016 231.857 575.003 231.926 575.003 231.997V234.693H566.99V231.997C566.99 231.926 566.977 231.857 566.95 231.792C566.923 231.727 566.884 231.668 566.834 231.618C566.784 231.569 566.726 231.529 566.661 231.503C566.596 231.476 566.526 231.462 566.456 231.462H553.637C553.567 231.462 553.497 231.476 553.432 231.503C553.368 231.529 553.309 231.569 553.259 231.618C553.21 231.668 553.17 231.727 553.143 231.792C553.116 231.857 553.103 231.926 553.103 231.997V234.693H545.09V231.997C545.09 231.926 545.077 231.857 545.05 231.792C545.023 231.727 544.984 231.668 544.934 231.618C544.884 231.569 544.826 231.529 544.761 231.503C544.696 231.476 544.627 231.462 544.556 231.462H531.737C531.667 231.462 531.597 231.476 531.532 231.503C531.468 231.529 531.409 231.569 531.359 231.618C531.31 231.668 531.27 231.727 531.243 231.792C531.217 231.857 531.203 231.926 531.203 231.997V234.693H523.191V231.997C523.191 231.926 523.177 231.857 523.15 231.792C523.123 231.727 523.084 231.668 523.034 231.618C522.985 231.569 522.926 231.529 522.861 231.503C522.796 231.476 522.727 231.462 522.656 231.462H509.837C509.767 231.462 509.697 231.476 509.633 231.503C509.568 231.529 509.509 231.569 509.459 231.618C509.41 231.668 509.37 231.727 509.343 231.792C509.317 231.857 509.303 231.926 509.303 231.997V234.693H501.291V231.997C501.291 231.926 501.277 231.857 501.25 231.792C501.223 231.727 501.184 231.668 501.134 231.618C501.085 231.569 501.026 231.529 500.961 231.503C500.896 231.476 500.827 231.462 500.756 231.462H487.937C487.867 231.462 487.797 231.476 487.733 231.503C487.668 231.529 487.609 231.569 487.559 231.618C487.51 231.668 487.47 231.727 487.443 231.792C487.417 231.857 487.403 231.926 487.403 231.997V234.693H479.391V231.997C479.391 231.926 479.377 231.857 479.35 231.792C479.323 231.727 479.284 231.668 479.234 231.618C479.185 231.569 479.126 231.529 479.061 231.503C478.996 231.476 478.927 231.462 478.857 231.462H378.437C378.367 231.462 378.298 231.476 378.233 231.503C378.168 231.529 378.109 231.569 378.059 231.618C378.01 231.668 377.971 231.727 377.944 231.792C377.917 231.857 377.903 231.926 377.903 231.997V234.693H369.891V231.997C369.891 231.926 369.877 231.857 369.85 231.792C369.823 231.727 369.784 231.668 369.734 231.618C369.685 231.569 369.626 231.529 369.561 231.503C369.496 231.476 369.427 231.462 369.357 231.462H356.537C356.467 231.462 356.398 231.476 356.333 231.503C356.268 231.529 356.209 231.569 356.16 231.618C356.11 231.668 356.071 231.727 356.044 231.792C356.017 231.857 356.003 231.926 356.003 231.997V234.693H347.991V231.997C347.991 231.926 347.977 231.857 347.95 231.792C347.923 231.727 347.884 231.668 347.834 231.618C347.785 231.569 347.726 231.529 347.661 231.503C347.596 231.476 347.527 231.462 347.457 231.462H334.637C334.567 231.462 334.498 231.476 334.433 231.503C334.368 231.529 334.309 231.569 334.26 231.618C334.21 231.668 334.171 231.727 334.144 231.792C334.117 231.857 334.103 231.926 334.103 231.997V234.693H326.091V231.997C326.091 231.926 326.077 231.857 326.05 231.792C326.023 231.727 325.984 231.668 325.935 231.618C325.885 231.569 325.826 231.529 325.761 231.503C325.696 231.476 325.627 231.462 325.557 231.462H312.737C312.667 231.462 312.598 231.476 312.533 231.503C312.468 231.529 312.409 231.569 312.36 231.618C312.31 231.668 312.271 231.727 312.244 231.792C312.217 231.857 312.203 231.926 312.203 231.997V234.693H304.191V231.997C304.191 231.926 304.177 231.857 304.15 231.792C304.123 231.727 304.084 231.668 304.035 231.618C303.985 231.569 303.926 231.529 303.861 231.503C303.796 231.476 303.727 231.462 303.657 231.462H290.837C290.767 231.462 290.698 231.476 290.633 231.503C290.568 231.529 290.509 231.569 290.46 231.618C290.41 231.668 290.371 231.727 290.344 231.792C290.317 231.857 290.303 231.926 290.303 231.997V234.693H282.291V231.997C282.291 231.926 282.277 231.857 282.25 231.792C282.224 231.727 282.184 231.668 282.135 231.618C282.085 231.569 282.026 231.529 281.961 231.503C281.896 231.476 281.827 231.462 281.757 231.462H268.937C268.867 231.462 268.798 231.476 268.733 231.503C268.668 231.529 268.609 231.569 268.56 231.618C268.51 231.668 268.471 231.727 268.444 231.792C268.417 231.857 268.403 231.926 268.403 231.997V234.693H260.391V231.997C260.391 231.926 260.377 231.857 260.35 231.792C260.324 231.727 260.284 231.668 260.235 231.618C260.185 231.569 260.126 231.529 260.061 231.503C259.997 231.476 259.927 231.462 259.857 231.462H247.037C246.967 231.462 246.898 231.476 246.833 231.503C246.768 231.529 246.709 231.569 246.66 231.618C246.61 231.668 246.571 231.727 246.544 231.792C246.517 231.857 246.503 231.926 246.503 231.997V234.693H221.933C218.533 234.693 215.272 236.045 212.868 238.452C210.464 240.858 209.113 244.122 209.113 247.526V253.328C209.113 256.731 210.464 259.995 212.868 262.402C215.272 264.808 218.533 266.16 221.933 266.16H648.181C651.58 266.16 654.841 264.808 657.245 262.402C659.649 259.995 661 256.731 661 253.328V247.526C661 244.122 659.649 240.858 657.245 238.452C654.841 236.045 651.58 234.693 648.181 234.693V234.693Z" fill="#3F3D56"/>
</g>
</g>
<defs>
<clipPath id="clip0">
<rect width="661" height="275" fill="white"/>
</clipPath>
</defs>
</svg>
